<?xml version="1.0" encoding="UTF-8"?>
<svg id="Capa_1" xmlns="http://www.w3.org/2000/svg" version="1.1" viewBox="0 0 32 32">
  <!-- Generator: Adobe Illustrator 30.6.0, SVG Export Plug-In . SVG Version: 2.1.4 Build 109)  -->
  <defs>
    <style>
      .st0 {
        fill: #264360;
      }

      .st1 {
        fill: #5e6881;
      }

      .st2 {
        fill: #fff;
      }
    </style>
  </defs>
  <path class="st0" d="M16,32C7.18,32,0,24.82,0,16S7.18,0,16,0s16,7.18,16,16-7.18,16-16,16Z"/>
  <g>
    <g>
      <g>
        <path class="st1" d="M7.03,12.89c-.4,1.35-.39,3.01.03,4.44.46,1.55,1.36,2.69,2.54,3.23-.1-.03-.21-.06-.31-.1-.35-.14-.67-.33-.96-.55-.65-.63-1.14-1.49-1.45-2.52-.43-1.46-.44-3.16-.03-4.55.72-2.41,2.9-4.87,5.52-4.68.17.01.34.04.51.08.28.14.53.32.73.54-.36-.25-.79-.41-1.25-.44-2.53-.18-4.63,2.21-5.33,4.55Z"/>
        <path class="st1" d="M12.5,12.81s-.03-.04-.02-.07c.03,0,.06,0,.09,0-.03.02-.05.05-.07.07Z"/>
        <path class="st1" d="M9.38,21.01c.98.46,1.88.34,2.42.17.87-.27,1.58-.93,1.9-1.77.3-.8.22-1.64-.23-2.36-.16-.26-.41-.53-.7-.75-.23-.25-.52-.47-.83-.62.72.18,1.38.77,1.69,1.28.48.77.57,1.69.25,2.53-.34.9-1.09,1.6-2.02,1.88-.35.11-.69.16-1.04.16-.98,0-1.94-.42-2.76-1.21.4.32.84.56,1.32.71Z"/>
        <path class="st1" d="M6.5,12.6c.6-2.02,2.32-4.21,4.51-4.57-.15.04-.3.08-.45.14-1.95.71-3.42,2.45-4.03,4.77-.25.96-.34,1.93-.26,2.86-.13-1.11-.05-2.24.24-3.2Z"/>
        <path class="st1" d="M14.31,11.86c-.23.31-.43.47-.67.56.6-.36,1.01-1.01,1.07-1.75.02-.22.01-.43,0-.62.14.62,0,1.26-.39,1.82Z"/>
        <path class="st1" d="M13.1,13.09c.19.17.41.31.65.42-.33-.09-.64-.23-.92-.43-.01-.03-.02-.06,0-.09v-.08s.09,0,.09,0c1.12.01,2.06-.86,2.14-1.98.09-1.28-.49-2.01-1-2.39-.01-.01-.03-.02-.04-.03-.24-.26-.54-.47-.87-.62.38.11.73.28,1.02.51.77.58,1.15,1.49,1.07,2.56-.09,1.16-1.01,2.08-2.14,2.15Z"/>
        <path class="st1" d="M12.39,16.59c-.37-.25-.78-.34-1.17-.26-.04,0-.08.03-.13.04-.11.05-.24.1-.36.04-.16-.07-.18-.18-.18-.24,0-.05.02-.1.04-.15.06-.02.11-.05.16-.06.06-.01.12-.02.17-.03-.1.07-.19.17-.19.24,0,0,0,.03.06.06.05.02.14,0,.22-.05.05-.02.1-.04.16-.05.22-.05.44-.05.66,0,.2.11.39.26.55.44Z"/>
        <path class="st1" d="M13.59,18.61c-.05.82-.47,1.51-1.18,1.96-.21.13-.44.24-.68.31,1.19-.53,1.92-1.76,1.77-3.01.07.25.1.5.09.73Z"/>
      </g>
      <g>
        <path class="st1" d="M13.84,15.87c-.28-.23-.58-.44-.88-.66-.23-.17-.47-.34-.7-.51h-.01c-.34-.28-.75-.6-1.09-.91.29.24.56.46.72.58.63.49,1.37.94,1.95,1.5Z"/>
        <path class="st1" d="M13.89,25.34c-.09-.89.41-1.9.84-2.8.17-.35.33-.68.46-.99.54-1.34.75-2.53.63-3.52-.2-1.7-1.56-2.71-2.88-3.69-.75-.55-1.52-1.13-2.05-1.81v-.02s-.04,0-.04,0c-.11-.05-.22-.04-.3.03,0,0,0,0,0,0,.04.05.08.09.12.14,0,0,0,0,0,0,0,0,.03-.03.08,0,.18.23.39.45.62.67.81.68,1.77,1.28,2.54,2,.87.73,1.59,1.56,1.72,2.72.11.96-.1,2.12-.62,3.43-.12.31-.28.63-.45.98-.45.92-.96,1.95-.86,2.9l.19-.02Z"/>
        <path class="st1" d="M14.37,22.17c-.14.28-.27.58-.4.87-.36.83-.6,2.15-.61,2.05-.13-1.26.85-2.68,1.31-3.83.43-1.06.76-2.32.63-3.48-.03-.22-.07-.42-.13-.62.1.22.18.46.22.72.26,1.61-.36,2.91-1.01,4.28Z"/>
      </g>
      <g>
        <path class="st1" d="M12.47,12.74c1.18.02,2.15-.9,2.23-2.07.19-2.63-2.42-3.66-4.62-2.86-4.46,1.63-5.74,8.28-2.77,11.77,1.03,1.21,2.47,1.91,4.07,1.42,1.8-.55,2.75-2.62,1.72-4.27-.48-.77-1.6-1.55-2.54-1.19-.19.07-.54.4-.23.53.13.06.29-.06.43-.09,1.27-.28,2.37,1.19,2.3,2.36-.11,1.84-2.15,2.77-3.77,2.12-2.85-1.14-3.58-5.2-2.79-7.86.69-2.3,2.8-4.8,5.43-4.62,1.79.13,2.97,2.03,1.86,3.56-.39.55-.71.58-1.32.7-1.13.23-.2,1.06.33,1.36.88.5,1.92.65,2.92.51.19-.03.52-.06.51-.33-.02-.31-.59-.12-.8-.11-1.01.05-2.1-.11-2.88-.82-.04-.03-.08-.06-.07-.12Z"/>
        <path class="st1" d="M13.35,25.09c-.13-1.26.85-2.68,1.31-3.83.43-1.06.76-2.32.63-3.48-.31-2.63-3.46-3.56-4.91-5.45-.22-.1-.32.12-.26.32.14.45,1.36,1.4,1.77,1.72,1.16.9,2.7,1.67,2.96,3.27.31,1.93-.67,3.44-1.41,5.1-.49,1.11-.94,2.28-.12,3.37l.04-1.01Z"/>
      </g>
    </g>
    <g>
      <g>
        <path class="st2" d="M22.97,8.99c.44,1.43.44,3.2,0,4.71-.47,1.65-1.42,2.86-2.67,3.45.11-.03.22-.07.32-.11.37-.15.71-.35,1.02-.59.68-.67,1.2-1.59,1.52-2.69.45-1.55.44-3.36,0-4.83-.78-2.55-3.12-5.14-5.9-4.93-.18.01-.36.05-.54.09-.3.15-.56.35-.77.58.38-.27.84-.44,1.33-.48,2.68-.21,4.93,2.31,5.69,4.79Z"/>
        <path class="st2" d="M17.17,8.95s.03-.04.02-.08c-.03,0-.07,0-.1,0,.03.02.06.05.07.08Z"/>
        <path class="st2" d="M20.55,17.63c-1.04.49-1.99.37-2.57.2-.93-.27-1.69-.97-2.03-1.86-.33-.85-.24-1.74.23-2.51.17-.28.43-.57.74-.8.25-.26.55-.5.88-.67-.76.19-1.45.82-1.79,1.37-.5.82-.59,1.79-.25,2.69.36.95,1.17,1.69,2.16,1.98.37.11.74.16,1.1.16,1.04,0,2.05-.46,2.92-1.31-.42.34-.89.61-1.39.76Z"/>
        <path class="st2" d="M23.53,8.68c-.66-2.14-2.49-4.44-4.82-4.82.16.04.32.08.48.14,2.07.74,3.65,2.57,4.32,5.03.28,1.01.37,2.04.3,3.04.13-1.18.03-2.38-.28-3.39Z"/>
        <path class="st2" d="M15.25,7.96c.24.33.46.49.71.59-.64-.38-1.08-1.06-1.15-1.85-.02-.23-.02-.45,0-.66-.15.66,0,1.34.43,1.92Z"/>
        <path class="st2" d="M16.54,9.25c-.2.18-.43.33-.69.45.35-.1.67-.25.97-.46.01-.03.02-.06,0-.1l-.02-.08h-.08c-1.19.03-2.19-.89-2.29-2.09-.11-1.36.5-2.14,1.04-2.55.01-.01.03-.02.05-.03.26-.28.57-.5.92-.67-.4.12-.77.3-1.08.55-.81.62-1.21,1.59-1.12,2.72.1,1.23,1.09,2.2,2.29,2.27Z"/>
        <path class="st2" d="M17.31,12.96c.39-.27.82-.37,1.24-.28.04,0,.09.03.13.05.12.05.25.1.39.04.16-.07.19-.19.18-.25,0-.05-.02-.11-.05-.16-.06-.02-.12-.05-.17-.06-.06-.01-.12-.02-.18-.03.1.07.21.18.21.25,0,0,0,.04-.07.07-.06.03-.14,0-.23-.05-.05-.02-.11-.04-.17-.06-.23-.05-.47-.05-.7,0-.21.12-.41.28-.58.47Z"/>
        <path class="st2" d="M16.06,15.11c.06.86.51,1.6,1.26,2.07.23.14.47.25.72.33-1.27-.55-2.05-1.86-1.9-3.17-.07.26-.11.53-.09.78Z"/>
      </g>
      <g>
        <path class="st2" d="M15.77,12.21c.29-.25.61-.48.92-.7.25-.18.5-.36.73-.55h.01c.36-.3.79-.65,1.15-.98-.3.26-.59.49-.75.62-.66.53-1.44,1.01-2.06,1.61Z"/>
        <path class="st2" d="M14.22,24.71c.2-.15.43-.28.66-.42.39-.23.79-.47,1.06-.78-.55.4-1.28.71-1.72,1.2Z"/>
        <path class="st2" d="M12.97,25.9c0-.54.28-1.06.81-1.5.04-.03.08-.06.12-.1.08-.09.17-.18.28-.26.38-.32.96-.59,1.42-.94.21-.23.36-.5.39-.82.09-1-.45-2.1-.94-3.07-.18-.37-.35-.71-.49-1.04-.57-1.39-.8-2.61-.69-3.64.13-1.23.89-2.12,1.81-2.9.81-.77,1.82-1.41,2.68-2.14.24-.23.46-.46.65-.71.06-.02.08,0,.09,0,0,0,0,0,0,0,.04-.05.09-.1.13-.15,0,0,0,0,0,0-.08-.07-.2-.08-.32-.03h-.02s-.01.03-.01.03c-.55.73-1.37,1.35-2.16,1.94-1.39,1.05-2.83,2.13-3.03,3.94-.12,1.06.12,2.31.7,3.73.14.33.31.68.49,1.05.47.94,1.01,2.02.92,2.96-.06.68-.74,1.09-1.4,1.49-.28.17-.54.33-.74.5-.57.48-.88,1.05-.88,1.65"/>
        <path class="st2" d="M15.27,18.89c.15.3.3.61.44.92.39.87.71,1.69.6,2.46.03-.09.06-.19.07-.29.13-1.33-.92-2.84-1.42-4.06-.46-1.12-.83-2.46-.69-3.68.03-.23.07-.45.14-.66-.11.24-.18.49-.23.77-.26,1.71.4,3.08,1.11,4.53Z"/>
        <path class="st2" d="M13.34,25.57c-.04.17-.06.36-.03.57"/>
      </g>
      <g>
        <path class="st2" d="M17.2,8.87c-1.25.03-2.29-.93-2.39-2.18-.23-2.78,2.53-3.9,4.88-3.07,4.75,1.69,6.16,8.73,3.03,12.47-1.08,1.29-2.6,2.05-4.31,1.54-1.91-.57-2.93-2.75-1.86-4.52.5-.82,1.68-1.66,2.68-1.29.2.08.57.42.25.56-.14.06-.31-.06-.46-.1-1.35-.29-2.51,1.28-2.42,2.52.14,1.95,2.3,2.92,4.02,2.22,3.02-1.24,3.76-5.55,2.9-8.36-.75-2.43-3.01-5.07-5.8-4.86-1.9.15-3.13,2.17-1.95,3.8.42.58.76.61,1.41.73,1.2.24.22,1.12-.34,1.44-.93.53-2.03.71-3.09.56-.2-.03-.55-.06-.54-.35.01-.33.63-.13.85-.12,1.08.04,2.23-.14,3.05-.9.04-.04.09-.06.08-.12Z"/>
        <path class="st2" d="M16.39,29.23l.13-.75c.23-.86,1.25-1.11,1.84-1.68.67-.64.85-1.6.02-2.19-.2-.14-.68-.3-.79-.42s-.08-.3.08-.33c.49-.1,1.22.43,1.48.82.64.96.07,2.01-.69,2.68-.48.42-1.28.72-1.49,1.35-.11.34-.06,1.34-.64,1.19-.45-.11-.35-.77-.48-1.14-.23-.64-1.06-.94-1.56-1.37-1.16-1-1.33-2.32-.1-3.35.7-.59,2.08-1.04,2.18-2.06.13-1.33-.92-2.84-1.42-4.06-.46-1.12-.83-2.46-.69-3.68.31-2.8,3.65-3.81,5.17-5.83.23-.11.34.13.28.33-.15.48-1.43,1.5-1.87,1.84-1.22.97-2.85,1.8-3.11,3.5-.31,2.05.74,3.64,1.53,5.4.53,1.17,1.02,2.41.16,3.57-.72.97-2.72,1.2-2.55,2.78.15,1.33,1.98,1.56,2.37,2.52.11.27.16.58.15.87Z"/>
      </g>
    </g>
  </g>
</svg>